<svg id="SvgjsSvg1006" width="918.5252075195312" height="372.89495849609375" xmlns="http://www.w3.org/2000/svg" version="1.1" xmlns:xlink="http://www.w3.org/1999/xlink" xmlns:svgjs="http://svgjs.com/svgjs"><defs id="SvgjsDefs1007"><marker id="SvgjsMarker1060" markerWidth="16" markerHeight="12" refX="16" refY="6" viewBox="0 0 16 12" orient="auto" markerUnits="userSpaceOnUse"><path id="SvgjsPath1061" d="M0,2 L14,6 L0,11 L0,2" fill="#323232" stroke="#323232" stroke-width="2"></path></marker><marker id="SvgjsMarker1064" markerWidth="16" markerHeight="12" refX="16" refY="6" viewBox="0 0 16 12" orient="auto" markerUnits="userSpaceOnUse"><path id="SvgjsPath1065" d="M0,2 L14,6 L0,11 L0,2" fill="#323232" stroke="#323232" stroke-width="2"></path></marker><marker id="SvgjsMarker1068" markerWidth="16" markerHeight="12" refX="16" refY="6" viewBox="0 0 16 12" orient="auto" markerUnits="userSpaceOnUse"><path id="SvgjsPath1069" d="M0,2 L14,6 L0,11 L0,2" fill="#323232" stroke="#323232" stroke-width="2"></path></marker><marker id="SvgjsMarker1072" markerWidth="16" markerHeight="12" refX="16" refY="6" viewBox="0 0 16 12" orient="auto" markerUnits="userSpaceOnUse"><path id="SvgjsPath1073" d="M0,2 L14,6 L0,11 L0,2" fill="#323232" stroke="#323232" stroke-width="2"></path></marker><marker id="SvgjsMarker1146" markerWidth="16" markerHeight="12" refX="16" refY="6" viewBox="0 0 16 12" orient="auto" markerUnits="userSpaceOnUse"><path id="SvgjsPath1147" d="M0,2 L14,6 L0,11 L0,2" fill="#323232" stroke="#323232" stroke-width="2"></path></marker></defs><g id="SvgjsG1008" transform="translate(51.69329833984375,160.60333340645957)"><path id="SvgjsPath1009" d="M 0 0L 507 0L 507 76.93385235721576L 0 76.93385235721576Z" stroke="#323232" stroke-width="2" fill-opacity="1" fill="#ffcc99"></path><g id="SvgjsG1010"><text id="SvgjsText1011" font-family="微软雅黑" text-anchor="middle" font-size="13px" width="0" fill="#323232" font-weight="400" align="middle" anchor="middle" family="微软雅黑" size="13px" weight="400" font-style="" y="29.01692617860788" transform="rotate(0)"></text></g></g><g id="SvgjsG1012" transform="translate(51.69329833984375,289.89917373657227)"><path id="SvgjsPath1013" d="M 123.89999999999999 0L 816.3333333333334 0C 828.6363636363636 0 828.6363636363636 58 816.3333333333334 58L 123.89999999999999 58C -41.300000000000004 58 -41.300000000000004 0 123.89999999999999 0ZM 816.3333333333334 0C 804.25 0 804.25 58 816.3333333333334 58C 804.25 58 804.25 0 816.3333333333334 0" stroke="#323232" stroke-width="2" fill-opacity="1" fill="#ff9999"></path><g id="SvgjsG1014"><text id="SvgjsText1015" font-family="微软雅黑" text-anchor="middle" font-size="28px" width="77" fill="#323232" font-weight="700" align="middle" anchor="middle" family="微软雅黑" size="28px" weight="700" font-style="" y="7.3" transform="rotate(0)"><tspan id="SvgjsTspan1016" dy="35" x="330.5"><tspan id="SvgjsTspan1017" style="text-decoration:;">Redis</tspan></tspan></text></g></g><g id="SvgjsG1018" transform="translate(153.08402681666496,185.85275314349292)"><path id="SvgjsPath1019" d="M 13.066062282677136 0L 64.85888252968489 0C 82.28029890658775 0 82.28029890658775 39.198186848031405 64.85888252968489 39.198186848031405L 13.066062282677136 39.198186848031405C -4.355354094225712 39.198186848031405 -4.355354094225712 0 13.066062282677136 0Z" stroke="#323232" stroke-width="2" fill-opacity="1" fill="#ff99cc"></path><g id="SvgjsG1020"><text id="SvgjsText1021" font-family="微软雅黑" text-anchor="middle" font-size="13px" width="52" fill="#323232" font-weight="700" align="middle" anchor="middle" family="微软雅黑" size="13px" weight="700" font-style="" y="10.149093424015703" transform="rotate(0)"><tspan id="SvgjsTspan1022" dy="16" x="39"><tspan id="SvgjsTspan1023" style="text-decoration:;">仓位管理</tspan></tspan></text></g></g><g id="SvgjsG1024" transform="translate(237.242967214016,185.85275314349292)"><path id="SvgjsPath1025" d="M 13.066062282677136 0L 64.85888252968489 0C 82.28029890658775 0 82.28029890658775 39.198186848031405 64.85888252968489 39.198186848031405L 13.066062282677136 39.198186848031405C -4.355354094225712 39.198186848031405 -4.355354094225712 0 13.066062282677136 0Z" stroke="#323232" stroke-width="2" fill-opacity="1" fill="#ff99cc"></path><g id="SvgjsG1026"><text id="SvgjsText1027" font-family="微软雅黑" text-anchor="middle" font-size="13px" width="52" fill="#323232" font-weight="700" align="middle" anchor="middle" family="微软雅黑" size="13px" weight="700" font-style="" y="10.149093424015703" transform="rotate(0)"><tspan id="SvgjsTspan1028" dy="16" x="39"><tspan id="SvgjsTspan1029" style="text-decoration:;">订单管理</tspan></tspan></text></g></g><g id="SvgjsG1030" transform="translate(322.9604065076142,185.85275314349292)"><path id="SvgjsPath1031" d="M 13.066062282677136 0L 64.85888252968489 0C 82.28029890658775 0 82.28029890658775 39.198186848031405 64.85888252968489 39.198186848031405L 13.066062282677136 39.198186848031405C -4.355354094225712 39.198186848031405 -4.355354094225712 0 13.066062282677136 0Z" stroke="#323232" stroke-width="2" fill-opacity="1" fill="#ffffff"></path><g id="SvgjsG1032"><text id="SvgjsText1033" font-family="微软雅黑" text-anchor="middle" font-size="13px" width="52" fill="#323232" font-weight="700" align="middle" anchor="middle" family="微软雅黑" size="13px" weight="700" font-style="" y="10.149093424015703" transform="rotate(0)"><tspan id="SvgjsTspan1034" dy="16" x="39"><tspan id="SvgjsTspan1035" style="text-decoration:;">资金管理</tspan></tspan></text></g></g><g id="SvgjsG1036" transform="translate(411.7948435937068,185.85275314349292)"><path id="SvgjsPath1037" d="M 13.066062282677136 0L 64.85888252968489 0C 82.28029890658775 0 82.28029890658775 39.198186848031405 64.85888252968489 39.198186848031405L 13.066062282677136 39.198186848031405C -4.355354094225712 39.198186848031405 -4.355354094225712 0 13.066062282677136 0Z" stroke="#323232" stroke-width="2" fill-opacity="1" fill="#ff99cc"></path><g id="SvgjsG1038"><text id="SvgjsText1039" font-family="微软雅黑" text-anchor="middle" font-size="13px" width="52" fill="#323232" font-weight="700" align="middle" anchor="middle" family="微软雅黑" size="13px" weight="700" font-style="" y="10.149093424015703" transform="rotate(0)"><tspan id="SvgjsTspan1040" dy="16" x="39"><tspan id="SvgjsTspan1041" style="text-decoration:;">行情接收</tspan></tspan></text></g></g><g id="SvgjsG1042" transform="translate(442.57519679458983,228.1604463961827)"><path id="SvgjsPath1043" d="M 5.400198675496689 0L 10.96403973509934 0L 10.96403973509934 45.85866211981874L 16.364238410596027 45.85866211981874L 8.182119205298013 54.040781325116754L 0 45.85866211981874L 5.400198675496689 45.85866211981874L 5.400198675496689 0Z" stroke="#323232" stroke-width="2" fill-opacity="1" fill="#ffffff"></path><g id="SvgjsG1044"><text id="SvgjsText1045" font-family="微软雅黑" text-anchor="middle" font-size="13px" width="0" fill="#323232" font-weight="400" align="middle" anchor="middle" family="微软雅黑" size="13px" weight="400" font-style="" y="14.868351596302542" transform="rotate(0)"></text></g></g><g id="SvgjsG1046" transform="translate(237.242967214016,25.008432388305607)"><path id="SvgjsPath1047" d="M 0 0L 77.92494481236201 0L 77.92494481236201 54.877461587244056L 0 54.877461587244056Z" stroke="#323232" stroke-width="2" fill-opacity="1" fill="#ffffff"></path><g id="SvgjsG1048"><text id="SvgjsText1049" font-family="微软雅黑" text-anchor="middle" font-size="13px" width="52" fill="#323232" font-weight="700" align="middle" anchor="middle" family="微软雅黑" size="13px" weight="700" font-style="" y="17.98873079362203" transform="rotate(0)"><tspan id="SvgjsTspan1050" dy="16" x="39"><tspan id="SvgjsTspan1051" style="text-decoration:;">交易柜台</tspan></tspan></text></g></g><g id="SvgjsG1052" transform="translate(411.79484359370684,25.008432388305664)"><path id="SvgjsPath1053" d="M 0 0L 77.92494481236203 0L 77.92494481236203 54.87746158724398L 0 54.87746158724398Z" stroke="#323232" stroke-width="2" fill-opacity="1" fill="#ffffff"></path><g id="SvgjsG1054"><text id="SvgjsText1055" font-family="微软雅黑" text-anchor="middle" font-size="13px" width="52" fill="#323232" font-weight="700" align="middle" anchor="middle" family="微软雅黑" size="13px" weight="700" font-style="" y="17.98873079362199" transform="rotate(0)"><tspan id="SvgjsTspan1056" dy="16" x="39"><tspan id="SvgjsTspan1057" style="text-decoration:;">行情柜台</tspan></tspan></text></g></g><g id="SvgjsG1058"><path id="SvgjsPath1059" d="M276.205439620197 79.88589397554966L276.205439620197 132.86932355952126L192.04649922284597 132.86932355952126L192.04649922284597 185.85275314349292" stroke="#323232" stroke-width="2" fill="none" marker-end="url(#SvgjsMarker1060)"></path></g><g id="SvgjsG1062"><path id="SvgjsPath1063" d="M276.205439620197 79.88589397554966L276.205439620197 132.86932355952126L276.205439620197 132.86932355952126L276.205439620197 185.85275314349292" stroke="#323232" stroke-width="2" fill="none" marker-end="url(#SvgjsMarker1064)"></path></g><g id="SvgjsG1066"><path id="SvgjsPath1067" d="M276.205439620197 79.88589397554966L276.205439620197 132.86932355952126L361.9228789137952 132.86932355952126L361.9228789137952 185.85275314349292" stroke="#323232" stroke-width="2" fill="none" marker-end="url(#SvgjsMarker1068)"></path></g><g id="SvgjsG1070"><path id="SvgjsPath1071" d="M450.75731599988785 79.88589397554966L450.75731599988785 132.86932355952126L450.7573159998878 132.86932355952126L450.7573159998878 185.85275314349292" stroke="#323232" stroke-width="2" fill="none" marker-end="url(#SvgjsMarker1072)"></path></g><g id="SvgjsG1074" transform="translate(353.7407597084972,228.1604463961827)"><path id="SvgjsPath1075" d="M 5.400198675496689 0L 10.96403973509934 0L 10.96403973509934 45.85866211981874L 16.364238410596027 45.85866211981874L 8.182119205298013 54.040781325116754L 0 45.85866211981874L 5.400198675496689 45.85866211981874L 5.400198675496689 0Z" stroke="#323232" stroke-width="2" fill-opacity="1" fill="#ffffff"></path><g id="SvgjsG1076"><text id="SvgjsText1077" font-family="微软雅黑" text-anchor="middle" font-size="13px" width="0" fill="#323232" font-weight="400" align="middle" anchor="middle" family="微软雅黑" size="13px" weight="400" font-style="" y="14.868351596302542" transform="rotate(0)"></text></g></g><g id="SvgjsG1078" transform="translate(268.023320414899,228.1604463961827)"><path id="SvgjsPath1079" d="M 5.400198675496689 0L 10.96403973509934 0L 10.96403973509934 45.85866211981874L 16.364238410596027 45.85866211981874L 8.182119205298013 54.040781325116754L 0 45.85866211981874L 5.400198675496689 45.85866211981874L 5.400198675496689 0Z" stroke="#323232" stroke-width="2" fill-opacity="1" fill="#ffffff"></path><g id="SvgjsG1080"><text id="SvgjsText1081" font-family="微软雅黑" text-anchor="middle" font-size="13px" width="0" fill="#323232" font-weight="400" align="middle" anchor="middle" family="微软雅黑" size="13px" weight="400" font-style="" y="14.868351596302542" transform="rotate(0)"></text></g></g><g id="SvgjsG1082" transform="translate(183.47475529348617,228.1604463961827)"><path id="SvgjsPath1083" d="M 5.6573509933774835 0L 11.486136865342162 0L 11.486136865342162 45.46903739575693L 17.143487858719645 45.46903739575693L 8.571743929359823 54.040781325116754L 0 45.46903739575693L 5.6573509933774835 45.46903739575693L 5.6573509933774835 0Z" stroke="#323232" stroke-width="2" fill-opacity="1" fill="#ffffff"></path><g id="SvgjsG1084"><text id="SvgjsText1085" font-family="微软雅黑" text-anchor="middle" font-size="13px" width="0" fill="#323232" font-weight="400" align="middle" anchor="middle" family="微软雅黑" size="13px" weight="400" font-style="" y="14.868351596302542" transform="rotate(0)"></text></g></g><g id="SvgjsG1086" transform="translate(128.1480444767091,237.56801123971013)"><path id="SvgjsPath1087" d="M 0 0L 93.50993377483445 0L 93.50993377483445 31.35854947842513L 0 31.35854947842513Z" stroke="none" fill="none"></path><g id="SvgjsG1088"><text id="SvgjsText1089" font-family="微软雅黑" text-anchor="middle" font-size="13px" width="26" fill="#323232" font-weight="700" align="middle" anchor="middle" family="微软雅黑" size="13px" weight="700" font-style="" y="6.229274739212564" transform="rotate(0)"><tspan id="SvgjsTspan1090" dy="16" x="47"><tspan id="SvgjsTspan1091" style="text-decoration:;">更新</tspan></tspan></text></g></g><g id="SvgjsG1092" transform="translate(213.86548377030732,237.56801123971024)"><path id="SvgjsPath1093" d="M 0 0L 93.50993377483445 0L 93.50993377483445 31.35854947842513L 0 31.35854947842513Z" stroke="none" fill="none"></path><g id="SvgjsG1094"><text id="SvgjsText1095" font-family="微软雅黑" text-anchor="middle" font-size="13px" width="26" fill="#323232" font-weight="700" align="middle" anchor="middle" family="微软雅黑" size="13px" weight="700" font-style="" y="-1.7707252607874355" transform="rotate(0)"><tspan id="SvgjsTspan1096" dy="16" x="47"><tspan id="SvgjsTspan1097" style="text-decoration:;">更新</tspan></tspan><tspan id="SvgjsTspan1098" dy="16" x="47"><tspan id="SvgjsTspan1099" style="text-decoration:;">推送</tspan></tspan></text></g></g><g id="SvgjsG1100" transform="translate(301.1414219601528,235.58174363472529)"><path id="SvgjsPath1101" d="M 0 0L 93.50993377483445 0L 93.50993377483445 31.35854947842513L 0 31.35854947842513Z" stroke="none" fill="none"></path><g id="SvgjsG1102"><text id="SvgjsText1103" font-family="微软雅黑" text-anchor="middle" font-size="13px" width="26" fill="#323232" font-weight="700" align="middle" anchor="middle" family="微软雅黑" size="13px" weight="700" font-style="" y="6.229274739212564" transform="rotate(0)"><tspan id="SvgjsTspan1104" dy="16" x="47"><tspan id="SvgjsTspan1105" style="text-decoration:;">更新</tspan></tspan></text></g></g><g id="SvgjsG1106" transform="translate(386.07961180562745,235.58174363472529)"><path id="SvgjsPath1107" d="M 0 0L 93.50993377483445 0L 93.50993377483445 31.35854947842513L 0 31.35854947842513Z" stroke="none" fill="none"></path><g id="SvgjsG1108"><text id="SvgjsText1109" font-family="微软雅黑" text-anchor="middle" font-size="13px" width="26" fill="#323232" font-weight="700" align="middle" anchor="middle" family="微软雅黑" size="13px" weight="700" font-style="" y="6.229274739212564" transform="rotate(0)"><tspan id="SvgjsTspan1110" dy="16" x="47"><tspan id="SvgjsTspan1111" style="text-decoration:;">推送</tspan></tspan></text></g></g><g id="SvgjsG1112" transform="translate(575.4372276996671,160.60333340645957)"><path id="SvgjsPath1113" d="M 0 0L 298.25607064017663 0L 298.25607064017663 76.93385235721576L 0 76.93385235721576Z" stroke="#323232" stroke-width="2" fill-opacity="1" fill="#99ffcc"></path><g id="SvgjsG1114"><text id="SvgjsText1115" font-family="微软雅黑" text-anchor="middle" font-size="13px" width="0" fill="#323232" font-weight="400" align="middle" anchor="middle" family="微软雅黑" size="13px" weight="400" font-style="" y="29.01692617860788" transform="rotate(0)"></text></g></g><g id="SvgjsG1116" transform="translate(479.58954558046185,147.35946496407138)"><path id="SvgjsPath1117" d="M 0 0L 84.15894039735099 0L 84.15894039735099 54.09349785028335L 0 54.09349785028335Z" stroke="none" fill="none"></path><g id="SvgjsG1118"><text id="SvgjsText1119" font-family="微软雅黑" text-anchor="middle" font-size="16px" width="65" fill="#323232" font-weight="700" align="middle" anchor="middle" family="微软雅黑" size="16px" weight="700" font-style="" y="15.146748925141674" transform="rotate(0)"><tspan id="SvgjsTspan1120" dy="20" x="42.5"><tspan id="SvgjsTspan1121" style="text-decoration:;">策略引擎</tspan></tspan></text></g></g><g id="SvgjsG1122" transform="translate(809.5343579424928,147.35946496407138)"><path id="SvgjsPath1123" d="M 0 0L 84.15894039735099 0L 84.15894039735099 54.09349785028335L 0 54.09349785028335Z" stroke="none" fill="none"></path><g id="SvgjsG1124"><text id="SvgjsText1125" font-family="微软雅黑" text-anchor="middle" font-size="16px" width="32" fill="#323232" font-weight="700" align="middle" anchor="middle" family="微软雅黑" size="16px" weight="700" font-style="" y="15.146748925141674" transform="rotate(0)"><tspan id="SvgjsTspan1126" dy="20" x="42.5"><tspan id="SvgjsTspan1127" style="text-decoration:;">策略</tspan></tspan></text></g></g><g id="SvgjsG1128" transform="translate(67.08402681666496,185.85275314349292)"><path id="SvgjsPath1129" d="M 13.066062282677136 0L 64.85888252968489 0C 82.28029890658775 0 82.28029890658775 39.198186848031405 64.85888252968489 39.198186848031405L 13.066062282677136 39.198186848031405C -4.355354094225712 39.198186848031405 -4.355354094225712 0 13.066062282677136 0Z" stroke="#323232" stroke-width="2" fill-opacity="1" fill="#ff99cc"></path><g id="SvgjsG1130"><text id="SvgjsText1131" font-family="微软雅黑" text-anchor="middle" font-size="13px" width="52" fill="#323232" font-weight="700" align="middle" anchor="middle" family="微软雅黑" size="13px" weight="700" font-style="" y="10.149093424015703" transform="rotate(0)"><tspan id="SvgjsTspan1132" dy="16" x="39"><tspan id="SvgjsTspan1133" style="text-decoration:;">订单转发</tspan></tspan></text></g></g><g id="SvgjsG1134" transform="translate(96.04649922284597,228.5023365970228)"><path id="SvgjsPath1135" d="M 10 0L 20 10L 13.4 10L 13.4 53.35700092343666L 6.6000000000000005 53.35700092343666L 6.6000000000000005 10L 0 10L 10 0Z" stroke="#323232" stroke-width="2" fill-opacity="1" fill="#ffffff"></path><g id="SvgjsG1136"><text id="SvgjsText1137" font-family="微软雅黑" text-anchor="middle" font-size="13px" width="0" fill="#323232" font-weight="400" align="middle" anchor="middle" family="微软雅黑" size="13px" weight="400" font-style="" y="19.896350507890162" transform="rotate(0)"></text></g></g><g id="SvgjsG1138" transform="translate(25.008971629026973,235.1808370587412)"><path id="SvgjsPath1139" d="M 0 0L 120 0L 120 40L 0 40Z" stroke="none" fill="none"></path><g id="SvgjsG1140"><text id="SvgjsText1141" font-family="微软雅黑" text-anchor="middle" font-size="13px" width="26" fill="#323232" font-weight="700" align="middle" anchor="middle" family="微软雅黑" size="13px" weight="700" font-style="" y="10.55" transform="rotate(0)"><tspan id="SvgjsTspan1142" dy="16" x="60"><tspan id="SvgjsTspan1143" style="text-decoration:;">订阅</tspan></tspan></text></g></g><g id="SvgjsG1144"><path id="SvgjsPath1145" d="M106.04649922284597 185.85275314349292L106.04649922284597 52.447163181927635L237.242967214016 52.447163181927635" stroke="#323232" stroke-width="2" fill="none" marker-end="url(#SvgjsMarker1146)"></path></g><g id="SvgjsG1148" transform="translate(612.046499222846,230.11588852513273)"><path id="SvgjsPath1149" d="M 10 0L 20 10L 13.4 10L 13.4 50.129897067216916L 6.6000000000000005 50.129897067216916L 6.6000000000000005 10L 0 10L 10 0Z" stroke="#323232" stroke-width="2" fill-opacity="1" fill="#ffffff"></path><g id="SvgjsG1150"><text id="SvgjsText1151" font-family="微软雅黑" text-anchor="middle" font-size="13px" width="0" fill="#323232" font-weight="400" align="middle" anchor="middle" family="微软雅黑" size="13px" weight="400" font-style="" y="18.1214433869693" transform="rotate(0)"></text></g></g><g id="SvgjsG1152" transform="translate(541.008971629027,235.1808370587412)"><path id="SvgjsPath1153" d="M 0 0L 120 0L 120 40L 0 40Z" stroke="none" fill="none"></path><g id="SvgjsG1154"><text id="SvgjsText1155" font-family="微软雅黑" text-anchor="middle" font-size="13px" width="26" fill="#323232" font-weight="700" align="middle" anchor="middle" family="微软雅黑" size="13px" weight="700" font-style="" y="10.55" transform="rotate(0)"><tspan id="SvgjsTspan1156" dy="16" x="60"><tspan id="SvgjsTspan1157" style="text-decoration:;">订阅</tspan></tspan></text></g></g><g id="SvgjsG1158" transform="translate(583.084026816665,185.85275314349292)"><path id="SvgjsPath1159" d="M 13.066062282677136 0L 64.85888252968489 0C 82.28029890658775 0 82.28029890658775 39.198186848031405 64.85888252968489 39.198186848031405L 13.066062282677136 39.198186848031405C -4.355354094225712 39.198186848031405 -4.355354094225712 0 13.066062282677136 0Z" stroke="#323232" stroke-width="2" fill-opacity="1" fill="#ff99cc"></path><g id="SvgjsG1160"><text id="SvgjsText1161" font-family="微软雅黑" text-anchor="middle" font-size="13px" width="52" fill="#323232" font-weight="700" align="middle" anchor="middle" family="微软雅黑" size="13px" weight="700" font-style="" y="10.149093424015703" transform="rotate(0)"><tspan id="SvgjsTspan1162" dy="16" x="39"><tspan id="SvgjsTspan1163" style="text-decoration:;">行情驱动</tspan></tspan></text></g></g><g id="SvgjsG1164" transform="translate(667.084026816665,185.85275314349292)"><path id="SvgjsPath1165" d="M 13.066062282677136 0L 64.85888252968489 0C 82.28029890658775 0 82.28029890658775 39.198186848031405 64.85888252968489 39.198186848031405L 13.066062282677136 39.198186848031405C -4.355354094225712 39.198186848031405 -4.355354094225712 0 13.066062282677136 0Z" stroke="#323232" stroke-width="2" fill-opacity="1" fill="#ff99cc"></path><g id="SvgjsG1166"><text id="SvgjsText1167" font-family="微软雅黑" text-anchor="middle" font-size="13px" width="52" fill="#323232" font-weight="700" align="middle" anchor="middle" family="微软雅黑" size="13px" weight="700" font-style="" y="10.149093424015703" transform="rotate(0)"><tspan id="SvgjsTspan1168" dy="16" x="39"><tspan id="SvgjsTspan1169" style="text-decoration:;">订单驱动</tspan></tspan></text></g></g><g id="SvgjsG1170" transform="translate(753.7948435937069,185.85275314349292)"><path id="SvgjsPath1171" d="M 13.066062282677136 0L 64.85888252968489 0C 82.28029890658775 0 82.28029890658775 39.198186848031405 64.85888252968489 39.198186848031405L 13.066062282677136 39.198186848031405C -4.355354094225712 39.198186848031405 -4.355354094225712 0 13.066062282677136 0Z" stroke="#323232" stroke-width="2" fill-opacity="1" fill="#ff99cc"></path><g id="SvgjsG1172"><text id="SvgjsText1173" font-family="微软雅黑" text-anchor="middle" font-size="13px" width="52" fill="#323232" font-weight="700" align="middle" anchor="middle" family="微软雅黑" size="13px" weight="700" font-style="" y="10.149093424015703" transform="rotate(0)"><tspan id="SvgjsTspan1174" dy="16" x="39"><tspan id="SvgjsTspan1175" style="text-decoration:;">订单发送</tspan></tspan></text></g></g><g id="SvgjsG1176" transform="translate(696.046499222846,230.11588852513273)"><path id="SvgjsPath1177" d="M 10 0L 20 10L 13.4 10L 13.4 50.129897067216916L 6.6000000000000005 50.129897067216916L 6.6000000000000005 10L 0 10L 10 0Z" stroke="#323232" stroke-width="2" fill-opacity="1" fill="#ffffff"></path><g id="SvgjsG1178"><text id="SvgjsText1179" font-family="微软雅黑" text-anchor="middle" font-size="13px" width="0" fill="#323232" font-weight="400" align="middle" anchor="middle" family="微软雅黑" size="13px" weight="400" font-style="" y="18.1214433869693" transform="rotate(0)"></text></g></g><g id="SvgjsG1180" transform="translate(625.008971629027,235.1808370587412)"><path id="SvgjsPath1181" d="M 0 0L 120 0L 120 40L 0 40Z" stroke="none" fill="none"></path><g id="SvgjsG1182"><text id="SvgjsText1183" font-family="微软雅黑" text-anchor="middle" font-size="13px" width="26" fill="#323232" font-weight="700" align="middle" anchor="middle" family="微软雅黑" size="13px" weight="700" font-style="" y="10.55" transform="rotate(0)"><tspan id="SvgjsTspan1184" dy="16" x="60"><tspan id="SvgjsTspan1185" style="text-decoration:;">订阅</tspan></tspan></text></g></g><g id="SvgjsG1186" transform="translate(784.5751967945898,230.11588852513273)"><path id="SvgjsPath1187" d="M 5.400198675496689 0L 10.96403973509934 0L 10.96403973509934 45.85866211981874L 16.364238410596027 45.85866211981874L 8.182119205298013 54.040781325116754L 0 45.85866211981874L 5.400198675496689 45.85866211981874L 5.400198675496689 0Z" stroke="#323232" stroke-width="2" fill-opacity="1" fill="#ffffff"></path><g id="SvgjsG1188"><text id="SvgjsText1189" font-family="微软雅黑" text-anchor="middle" font-size="13px" width="0" fill="#323232" font-weight="400" align="middle" anchor="middle" family="微软雅黑" size="13px" weight="400" font-style="" y="14.868351596302542" transform="rotate(0)"></text></g></g><g id="SvgjsG1190" transform="translate(728.0796118056275,237.53718576367532)"><path id="SvgjsPath1191" d="M 0 0L 93.50993377483445 0L 93.50993377483445 31.35854947842513L 0 31.35854947842513Z" stroke="none" fill="none"></path><g id="SvgjsG1192"><text id="SvgjsText1193" font-family="微软雅黑" text-anchor="middle" font-size="13px" width="26" fill="#323232" font-weight="700" align="middle" anchor="middle" family="微软雅黑" size="13px" weight="700" font-style="" y="6.229274739212564" transform="rotate(0)"><tspan id="SvgjsTspan1194" dy="16" x="47"><tspan id="SvgjsTspan1195" style="text-decoration:;">推送</tspan></tspan></text></g></g></svg>